# xmcd
# 
# Track frame offsets:
#   150
#   13947
#   32923
#   50332
#   67077
#   82712
#   96157
#   111700
#   127600
#   146886
#   165149
#   180790
#   199236
#   214480
#   231386
# 
# Disc length: 3303 seconds
# 
# Revision: 0
# Processed by: cddbd v1.5.1PL2 Copyright (c) Steve Scherf et al.
# Submitted via: Synapstar 1.0 
# 
DISCID=d00ce50f
DTITLE=Various Artist - Music Maestro
DYEAR=1900
DGENRE=Country
TTITLE0=Brooks and Dunn - My Heart Is Lost To You
TTITLE1=Shannon Lawson - Goodbye On A Bad Day
TTITLE2=Cyndi Thomson - I'm Gone
TTITLE3=Aaron Tippin - I'll Take Love Over Money
TTITLE4=Kenny Chesney - The Good Stuff
TTITLE5=Phil Vassar - American Child
TTITLE6=Jo Dee Messina - Dare To Dream
TTITLE7=Marcel - Country Rock Star
TTITLE8=Martina McBride - Where Would You Be
TTITLE9=SheDaisy - Mine All Mine
TTITLE10=Toby Keith - Angry American
TTITLE11=Rebecca Lynn Howard - Forgive
TTITLE12=Pinmonkey - Barbed Wire and Roses
TTITLE13=Blake Shelton - Ol'Red
TTITLE14=Brad Martin - Before I Knew Better
EXTD=MediaType: Karaoke CD+G Producer: Music Maestro
EXTT0=
EXTT1=
EXTT2=
EXTT3=
EXTT4=
EXTT5=
EXTT6=
EXTT7=
EXTT8=
EXTT9=
EXTT10=
EXTT11=
EXTT12=
EXTT13=
EXTT14=
PLAYORDER=
